<svg width="40" height="40" viewBox="0 0 40 40" fill="none" xmlns="http://www.w3.org/2000/svg">
<path d="M0 14C0 6.26802 6.26801 0 14 0H25.9884C33.7204 0 39.9884 6.26801 39.9884 14V25.9884C39.9884 33.7204 33.7204 39.9884 25.9884 39.9884H14C6.26802 39.9884 0 33.7204 0 25.9884V14Z" fill="#D1FAE5"/>
<path d="M21.6608 12.4941H14.1608C13.2403 12.4941 12.4941 13.2403 12.4941 14.1608C12.4941 15.0813 13.2403 15.8275 14.1608 15.8275H24.9941C24.9941 15.0525 24.9941 14.665 24.909 14.3471C24.6778 13.4844 24.0039 12.8105 23.1412 12.5793C22.8233 12.4941 22.4358 12.4941 21.6608 12.4941Z" stroke="#03BC00" stroke-width="1.5" stroke-linecap="round" stroke-linejoin="round"/>
<path d="M12.4941 14.1611V22.4945C12.4941 24.8515 12.4941 26.03 13.2264 26.7622C13.9586 27.4945 15.1371 27.4945 17.4941 27.4945H22.4941C24.8511 27.4945 26.0296 27.4945 26.7619 26.7622C27.4941 26.03 27.4941 24.8515 27.4941 22.4945V20.8278C27.4941 18.4708 27.4941 17.2923 26.7619 16.56C26.0296 15.8278 24.8511 15.8278 22.4941 15.8278H15.8275" stroke="#03BC00" stroke-width="1.5" stroke-linecap="round" stroke-linejoin="round"/>
<path d="M27.494 19.9941H25.8273C25.4398 19.9941 25.2461 19.9941 25.0871 20.0367C24.6557 20.1523 24.3188 20.4892 24.2032 20.9206C24.1606 21.0796 24.1606 21.2733 24.1606 21.6608C24.1606 22.0483 24.1606 22.2421 24.2032 22.401C24.3188 22.8324 24.6557 23.1693 25.0871 23.2849C25.2461 23.3275 25.4398 23.3275 25.8273 23.3275H27.494" stroke="#03BC00" stroke-width="1.5" stroke-linecap="round" stroke-linejoin="round"/>
</svg>
