<svg width="40" height="40" viewBox="0 0 40 40" fill="none" xmlns="http://www.w3.org/2000/svg">
<path d="M0 14C0 6.26802 6.26801 0 14 0H25.9884C33.7204 0 39.9884 6.26801 39.9884 14V25.9884C39.9884 33.7204 33.7204 39.9884 25.9884 39.9884H14C6.26802 39.9884 0 33.7204 0 25.9884V14Z" fill="#F0F9FF"/>
<path d="M20.8273 19.1605C20.8273 17.3195 19.3349 15.8271 17.494 15.8271C15.653 15.8271 14.1606 17.3195 14.1606 19.1605C14.1606 21.0014 15.653 22.4938 17.494 22.4938C19.3349 22.4938 20.8273 21.0014 20.8273 19.1605Z" stroke="#256FDE" stroke-width="1.5" stroke-linecap="round" stroke-linejoin="round"/>
<path d="M19.1928 16.2922C19.1716 16.1404 19.1606 15.9852 19.1606 15.8275C19.1606 13.9865 20.6531 12.4941 22.494 12.4941C24.3349 12.4941 25.8273 13.9865 25.8273 15.8275C25.8273 17.6684 24.3349 19.1608 22.494 19.1608C21.8735 19.1608 21.2926 18.9913 20.7951 18.6961" stroke="#256FDE" stroke-width="1.5" stroke-linecap="round" stroke-linejoin="round"/>
<path d="M22.4941 27.4941C22.4941 24.7327 20.2556 22.4941 17.4941 22.4941C14.7327 22.4941 12.4941 24.7327 12.4941 27.4941" stroke="#256FDE" stroke-width="1.5" stroke-linecap="round" stroke-linejoin="round"/>
<path d="M27.4941 24.1611C27.4941 21.3997 25.2556 19.1611 22.4941 19.1611" stroke="#256FDE" stroke-width="1.5" stroke-linecap="round" stroke-linejoin="round"/>
</svg>
