<svg width="24" height="24" viewBox="0 0 24 24" fill="none" xmlns="http://www.w3.org/2000/svg">
<mask id="mask0_35925_3710" style="mask-type:luminance" maskUnits="userSpaceOnUse" x="3" y="1" width="19" height="18">
<path fill-rule="evenodd" clip-rule="evenodd" d="M3 1H21.4969V18.348H3V1Z" fill="white"/>
</mask>
<g mask="url(#mask0_35925_3710)">
<path fill-rule="evenodd" clip-rule="evenodd" d="M12.247 2.5C8.75201 2.5 6.31601 5.238 6.31601 7.695C6.31601 9.774 5.73901 10.735 5.22901 11.583C4.82001 12.264 4.49701 12.802 4.49701 13.971C4.66401 15.857 5.90901 16.848 12.247 16.848C18.55 16.848 19.834 15.813 20 13.906C19.997 12.802 19.674 12.264 19.265 11.583C18.755 10.735 18.178 9.774 18.178 7.695C18.178 5.238 15.742 2.5 12.247 2.5ZM12.247 18.348C7.57101 18.348 3.34501 18.018 3.00001 14.035C2.99701 12.387 3.50001 11.549 3.94401 10.811C4.39301 10.063 4.81601 9.358 4.81601 7.695C4.81601 4.462 7.80201 1 12.247 1C16.692 1 19.678 4.462 19.678 7.695C19.678 9.358 20.101 10.063 20.55 10.811C20.994 11.549 21.497 12.387 21.497 13.971C21.148 18.018 16.923 18.348 12.247 18.348Z" fill="#1F1F1F"/>
</g>
<path fill-rule="evenodd" clip-rule="evenodd" d="M12.198 22.5006H12.196C11.075 22.4996 10.014 22.0056 9.20903 21.1086C8.93203 20.8016 8.95703 20.3266 9.26503 20.0506C9.57303 19.7726 10.047 19.7976 10.324 20.1066C10.842 20.6836 11.507 21.0006 12.197 21.0006H12.198C12.891 21.0006 13.559 20.6836 14.078 20.1056C14.356 19.7986 14.83 19.7736 15.137 20.0506C15.445 20.3276 15.47 20.8026 15.193 21.1096C14.385 22.0066 13.322 22.5006 12.198 22.5006Z" fill="#1F1F1F"/>
</svg>
