<svg width="20" height="20" viewBox="0 0 20 20" fill="none" xmlns="http://www.w3.org/2000/svg">
<path d="M10.3035 14.2561C10.1614 14.4115 9.96057 14.5 9.75 14.5C9.53943 14.5 9.33857 14.4115 9.19648 14.2561L5.19648 9.88108C4.91698 9.57538 4.93822 9.10098 5.24392 8.82148C5.54963 8.54198 6.02402 8.56322 6.30352 8.86892L9 11.8182V0.75C9 0.335787 9.33579 0 9.75 0C10.1642 0 10.5 0.335787 10.5 0.75V11.8182L13.1965 8.86892C13.476 8.56322 13.9504 8.54198 14.2561 8.82148C14.5618 9.10098 14.583 9.57537 14.3035 9.88108L10.3035 14.2561Z" fill="white"/>
<path d="M1.5 12.75C1.5 12.3358 1.16422 12 0.750002 12C0.335788 12 5.3002e-07 12.3358 5.3002e-07 12.75V12.8049C-1.96761e-05 14.1725 -3.5964e-05 15.2748 0.116524 16.1418C0.237541 17.0419 0.496434 17.7997 1.09835 18.4016C1.70027 19.0036 2.45814 19.2625 3.35825 19.3835C4.22522 19.5 5.32754 19.5 6.69513 19.5H12.8049C14.1725 19.5 15.2748 19.5 16.1418 19.3835C17.0419 19.2625 17.7997 19.0036 18.4017 18.4016C19.0036 17.7997 19.2625 17.0419 19.3835 16.1418C19.5 15.2748 19.5 14.1725 19.5 12.8049V12.75C19.5 12.3358 19.1642 12 18.75 12C18.3358 12 18 12.3358 18 12.75C18 14.1854 17.9984 15.1865 17.8969 15.9419C17.7982 16.6757 17.6178 17.0642 17.341 17.341C17.0642 17.6178 16.6757 17.7982 15.9419 17.8969C15.1865 17.9984 14.1854 18 12.75 18H6.75C5.31459 18 4.31347 17.9984 3.55812 17.8969C2.82435 17.7982 2.43577 17.6178 2.15901 17.341C1.88225 17.0642 1.7018 16.6757 1.60315 15.9419C1.50159 15.1865 1.5 14.1854 1.5 12.75Z" fill="white"/>
</svg>
