<svg width="13" height="13" viewBox="0 0 13 13" fill="none" xmlns="http://www.w3.org/2000/svg">
<g clip-path="url(#clip0_35074_33523)">
<path d="M11.467 3.68925C11.7534 3.40299 11.9143 3.01471 11.9143 2.60982C11.9144 2.20494 11.7536 1.81661 11.4673 1.53028C11.181 1.24395 10.7928 1.08306 10.3879 1.08301C9.983 1.08296 9.59467 1.24375 9.30834 1.53001L2.08054 8.75943C1.9548 8.8848 1.86181 9.03917 1.80976 9.20893L1.09435 11.5658C1.08035 11.6127 1.07929 11.6624 1.09129 11.7098C1.10328 11.7572 1.12788 11.8005 1.16247 11.835C1.19707 11.8695 1.24036 11.8941 1.28777 11.906C1.33518 11.9179 1.38493 11.9168 1.43174 11.9027L3.7892 11.1878C3.9588 11.1362 4.11315 11.0438 4.2387 10.9187L11.467 3.68925Z" stroke="#191B1E" stroke-width="1.08314" stroke-linecap="round" stroke-linejoin="round"/>
<path d="M8.12354 2.70801L10.2898 4.87429" stroke="#191B1E" stroke-width="1.08314" stroke-linecap="round" stroke-linejoin="round"/>
</g>
<defs>
<clipPath id="clip0_35074_33523">
<rect width="12.9977" height="12.9977" fill="white"/>
</clipPath>
</defs>
</svg>
