<svg width="18" height="18" viewBox="0 0 18 18" fill="none" xmlns="http://www.w3.org/2000/svg">
<g clip-path="url(#clip0_35404_63014)">
<path d="M11.2145 1.5H6.78554V3.43614L5.36605 4.27025L3.7145 3.30144L1.5 7.19856L3.15114 8.16713L3.15115 9.83295L1.50007 10.8014L3.71458 14.6986L5.36608 13.7298L6.78554 14.5639V16.5H11.2145V14.5639L12.634 13.7298L14.2854 14.6986L16.4999 10.8014L14.849 9.83295V8.16705L16.5 7.19856L14.2855 3.30144L12.634 4.27022L11.2145 3.43614V1.5Z" stroke="#777F89" stroke-width="1.5" stroke-linejoin="round"/>
<path d="M11.625 9C11.625 10.4498 10.4498 11.625 9 11.625C7.55025 11.625 6.375 10.4498 6.375 9C6.375 7.55025 7.55025 6.375 9 6.375C10.4498 6.375 11.625 7.55025 11.625 9Z" stroke="#777F89" stroke-width="1.5"/>
</g>
<defs>
<clipPath id="clip0_35404_63014">
<rect width="18" height="18" fill="white"/>
</clipPath>
</defs>
</svg>
