<svg width="235" height="56" viewBox="0 0 235 56" fill="none" xmlns="http://www.w3.org/2000/svg">
<g clip-path="url(#clip0_4186_14154)">
<g clip-path="url(#clip1_4186_14154)">
<path d="M40.4408 23.6015C49.8732 51.1498 13.8333 56.3406 6.87077 47.8961C6.86956 47.8949 6.86714 47.8937 6.86594 47.8925C18.4348 64.3659 60.3841 55.6763 55.814 19.6051C53.07 11.2428 39.5205 11.9034 40.4408 23.6015Z" fill="#8E8834"/>
<path d="M6.87197 47.8961C6.87439 47.8985 6.8768 47.8998 6.87922 47.9022C-1.10508 40.4142 6.42028 4.73188 33.2923 15.9553C44.8925 17.6425 46.4396 4.15338 38.279 0.871979C2.61352 -6.05314 -8.79711 35.2572 6.86714 47.8925C6.86593 47.8901 6.86352 47.8877 6.86231 47.8853C6.86472 47.8889 6.86835 47.8925 6.87197 47.8961Z" fill="#8E8834"/>
<path d="M6.86108 47.8853C6.86229 47.8877 6.86471 47.8901 6.86591 47.8925C6.86712 47.8937 6.86954 47.8949 6.87075 47.8961C6.86833 47.8925 6.86471 47.8889 6.86108 47.8853Z" fill="#8E8834"/>
<path d="M95.2089 34.3961C95.2089 32.1642 94.4203 30.3611 92.8309 28.9819C91.3188 27.6763 89.4251 27.0157 87.151 27.0157H76.0568C75.273 27.0157 74.6123 26.8104 74.0556 26.3998C73.5072 25.9879 73.2331 25.3973 73.2331 24.6389C73.2331 23.9058 73.5072 23.3237 74.0556 22.8865C74.6123 22.4493 75.2717 22.2271 76.0568 22.2271H93.7947V18.1268H76.0556C74.0157 18.1268 72.2995 18.692 70.9239 19.8188C69.4541 21.035 68.7222 22.6292 68.7222 24.6075C68.7222 26.6039 69.4553 28.215 70.9239 29.4312C72.2995 30.5628 74.0169 31.1232 76.0556 31.1232H87.1498C88.2766 31.1232 89.2355 31.3671 90.0459 31.8478C91.0097 32.4179 91.4891 33.2355 91.4891 34.2935C91.4891 35.3478 91.0181 36.1908 90.0761 36.808C89.25 37.3176 88.2778 37.5664 87.1498 37.5664H69.2017V41.6703H87.1498C89.4251 41.6703 91.3176 41.0362 92.8297 39.7729C94.4191 38.4142 95.2089 36.6232 95.2089 34.3961Z" fill="#404041"/>
<path d="M143.262 18.8164C142.616 18.3068 141.999 18.058 141.399 18.058C140.85 18.058 140.228 18.3237 139.539 18.8502C138.965 19.308 138.519 19.8176 138.198 20.3659L125.415 41.6304H130.688L141.296 24.1872L145.395 30.9819H139.162L136.681 35.0507H147.845L151.803 41.6304L157.072 41.6691L144.606 20.3659C144.261 19.7717 143.812 19.2536 143.262 18.8164Z" fill="#404041"/>
<path d="M73.8563 46.0193H73.4553L69.2017 55.6739H70.3792L71.5447 52.9336H75.6691L76.8091 55.6739H78L73.8563 46.0193ZM71.9819 51.936L73.6328 48.0688L75.2463 51.936H71.9819Z" fill="#404041"/>
<path d="M195.964 41.6703H200.03V22.2271H209.291V18.1268H186.664V22.2271H195.964V41.6703Z" fill="#404041"/>
<path d="M234.783 41.6703L222.313 20.3672C221.975 19.7717 221.525 19.2536 220.969 18.8164C220.335 18.3068 219.709 18.058 219.114 18.058C218.562 18.058 217.94 18.3237 217.255 18.8502C216.68 19.308 216.231 19.8176 215.909 20.3659L203.128 41.6304H208.401L219.008 24.1872L223.112 30.9819H216.876L214.395 35.0507H225.558L229.517 41.6304L234.783 41.6703Z" fill="#404041"/>
<path d="M128.304 53.5737L125.034 46.0193H124.69L122.836 55.6739H123.937L125.18 49.1437H125.205L128.127 55.6739H128.483L131.415 49.1437H131.442L132.684 55.6739H133.785L131.931 46.0193H131.587L128.304 53.5737Z" fill="#404041"/>
<path d="M118.635 27.7826H104.816V31.8768H118.635V41.6703H122.731V18.1268H118.635V27.7826Z" fill="#404041"/>
<path d="M102.961 18.1268H98.8575V41.6703H102.961V18.1268Z" fill="#404041"/>
<path d="M178.431 34.4601L163.344 19.3345C162.54 18.529 161.755 18.1268 161.001 18.1268C160.452 18.1268 160.024 18.3285 159.725 18.7307C159.43 19.1328 159.279 19.6087 159.279 20.1618V41.6703H163.344V25.3321L178.431 40.4964C179.373 41.4432 180.222 41.9142 180.981 41.9142C182.012 41.9142 182.531 41.1522 182.531 39.6353V18.1268H178.432V34.4601H178.431Z" fill="#404041"/>
<path d="M86.2995 51.1135C86.0652 50.9118 85.8285 50.7428 85.5893 50.6063C85.349 50.4698 85.0471 50.3237 84.6799 50.1667L84.0398 49.8937C83.8091 49.7947 83.6316 49.7126 83.5084 49.6461C83.384 49.5797 83.2331 49.4867 83.0531 49.3672C82.8744 49.2488 82.7415 49.1099 82.6558 48.9529C82.5712 48.7959 82.529 48.6232 82.529 48.4324C82.529 48.0121 82.6872 47.6655 83.0024 47.3937C83.3188 47.1208 83.6944 46.9855 84.1292 46.9855C84.8381 46.9855 85.3925 47.3225 85.7947 48L86.6521 47.4674C86.3961 47.006 86.0507 46.6486 85.6159 46.3961C85.1799 46.1449 84.6932 46.0181 84.1558 46.0181C83.413 46.0181 82.7777 46.2391 82.2476 46.6812C81.7186 47.122 81.4541 47.6932 81.4541 48.3949C81.4541 48.9976 81.6328 49.4722 81.9915 49.8188C82.3502 50.1655 82.8707 50.4867 83.5531 50.7838L84.1425 51.0314C84.3901 51.1389 84.5688 51.2186 84.6799 51.2729C84.7898 51.3273 84.9444 51.4155 85.1401 51.5399C85.3369 51.663 85.4794 51.779 85.5688 51.8865C85.6594 51.9928 85.7391 52.1353 85.8128 52.3128C85.8852 52.4903 85.9215 52.6824 85.9215 52.8877C85.9215 53.3998 85.7234 53.8309 85.3261 54.1812C84.9287 54.5314 84.4662 54.7077 83.9372 54.7077C83.4335 54.7077 83.0024 54.5411 82.6437 54.2065C82.285 53.872 82.0712 53.4614 82.0036 52.9746L80.9541 53.2609C81.1075 53.9867 81.4553 54.5713 81.9976 55.0121C82.5398 55.4541 83.1944 55.6751 83.9625 55.6751C84.8067 55.6751 85.5241 55.3961 86.1135 54.8394C86.7029 54.2826 86.9976 53.6002 86.9976 52.7911C86.9976 52.4372 86.9396 52.1196 86.8248 51.8382C86.7089 51.5568 86.5338 51.3152 86.2995 51.1135Z" fill="#404041"/>
<path d="M95.6594 51.1135C95.4251 50.9118 95.1884 50.7428 94.9493 50.6063C94.709 50.4698 94.407 50.3237 94.0399 50.1667L93.3998 49.8937C93.1691 49.7947 92.9916 49.7126 92.8684 49.6461C92.744 49.5797 92.593 49.4867 92.4131 49.3672C92.2343 49.2488 92.1015 49.1099 92.0157 48.9529C91.9312 48.7959 91.8889 48.6232 91.8889 48.4324C91.8889 48.0121 92.0471 47.6655 92.3623 47.3937C92.6788 47.1208 93.0544 46.9855 93.4892 46.9855C94.1981 46.9855 94.7524 47.3225 95.1546 48L96.0121 47.4674C95.7561 47.006 95.4106 46.6486 94.9759 46.3961C94.5399 46.1449 94.0532 46.0181 93.5157 46.0181C92.773 46.0181 92.1377 46.2391 91.6075 46.6812C91.0785 47.122 90.814 47.6932 90.814 48.3949C90.814 48.9976 90.9928 49.4722 91.3515 49.8188C91.7102 50.1655 92.2307 50.4867 92.9131 50.7838L93.5024 51.0314C93.75 51.1389 93.9288 51.2186 94.0399 51.2729C94.1498 51.3273 94.3044 51.4155 94.5 51.5399C94.6969 51.663 94.8394 51.779 94.9288 51.8865C95.0193 51.9928 95.0991 52.1353 95.1727 52.3128C95.2452 52.4903 95.2814 52.6824 95.2814 52.8877C95.2814 53.3998 95.0834 53.8309 94.686 54.1812C94.2887 54.5314 93.8261 54.7077 93.2971 54.7077C92.7935 54.7077 92.3623 54.5411 92.0036 54.2065C91.6449 53.872 91.4312 53.4614 91.3635 52.9746L90.314 53.2609C90.4674 53.9867 90.8152 54.5713 91.3575 55.0121C91.8998 55.4541 92.5544 55.6751 93.3225 55.6751C94.1667 55.6751 94.8841 55.3961 95.4735 54.8394C96.0628 54.2826 96.3575 53.6002 96.3575 52.7911C96.3575 52.4372 96.2995 52.1196 96.1848 51.8382C96.0689 51.5568 95.8937 51.3152 95.6594 51.1135Z" fill="#404041"/>
<path d="M100.135 55.6739H105.141V54.6763H101.211V50.8853H105.027V49.8865H101.211V47.0181H105.141V46.0193H100.135V55.6739Z" fill="#404041"/>
<path d="M108.33 47.0181H110.661V55.6739H111.736V47.0181H114.091V46.0193H108.33V47.0181Z" fill="#404041"/>
<path d="M136.319 55.6739H137.496L138.662 52.9336H142.786L143.926 55.6739H145.117L140.973 46.0193H140.572L136.319 55.6739ZM139.098 51.936L140.749 48.0688L142.362 51.936H139.098Z" fill="#404041"/>
<path d="M177.344 51.7101H180.159C180.159 52.5568 179.812 53.2621 179.117 53.8285C178.421 54.3937 177.642 54.6775 176.78 54.6775C176.302 54.6775 175.825 54.5664 175.347 54.3442C174.87 54.122 174.449 53.8309 174.089 53.4698C173.353 52.7162 172.984 51.8237 172.984 50.7923C172.984 49.7126 173.361 48.7814 174.116 48.0024C174.87 47.2234 175.783 46.8333 176.855 46.8333C178.179 46.8333 179.263 47.4287 180.11 48.6171L180.877 47.901C179.828 46.535 178.494 45.8514 176.867 45.8514C175.501 45.8514 174.337 46.3333 173.373 47.2971C172.409 48.2609 171.927 49.4215 171.927 50.779C171.927 52.1111 172.408 53.2572 173.367 54.2162C174.326 55.1751 175.472 55.6558 176.804 55.6558C177.466 55.6558 178.109 55.5169 178.733 55.2415C179.357 54.965 179.883 54.5749 180.31 54.0725C180.713 53.6027 180.981 53.1087 181.115 52.5894C181.249 52.07 181.307 51.4493 181.291 50.7295H177.345V51.7101H177.344Z" fill="#404041"/>
<path d="M185.104 55.6739H190.111V54.6763H186.18V50.8853H189.995V49.8865H186.18V47.0181H190.111V46.0193H185.104V55.6739Z" fill="#404041"/>
<path d="M207.82 55.6739H212.826V54.6763H208.895V50.8853H212.71V49.8865H208.895V47.0181H212.826V46.0193H207.82V55.6739Z" fill="#404041"/>
<path d="M229.022 47.0181H231.351V55.6739H232.426V47.0181H234.783V46.0193H229.022V47.0181Z" fill="#404041"/>
<path d="M156.622 55.6739H157.037V46.0193H156.792H155.961V53.4976L148.824 46.0193H148.432V55.6739H149.508V48.2355L156.622 55.6739Z" fill="#404041"/>
<path d="M165.006 46.0193H164.605L160.351 55.6739H161.529L162.694 52.9336H166.819L167.959 55.6739H169.15L165.006 46.0193ZM163.132 51.936L164.783 48.0688L166.396 51.936H163.132Z" fill="#404041"/>
<path d="M202.534 46.0193H202.19L198.907 53.5737L195.636 46.0193H195.292L193.44 55.6739H194.541L195.783 49.1437H195.809L198.729 55.6739H199.086L202.019 49.1437H202.045L203.286 55.6739H203.44H204.388L202.534 46.0193Z" fill="#404041"/>
<path d="M225.528 46.0387H224.452V53.5169L217.314 46.0387H216.923V55.6944H217.999V48.2548L225.112 55.6944H225.528V46.0387Z" fill="#404041"/>
</g>
</g>
<defs>
<clipPath id="clip0_4186_14154">
<rect width="235" height="56" fill="white"/>
</clipPath>
<clipPath id="clip1_4186_14154">
<rect width="234.783" height="56" fill="white"/>
</clipPath>
</defs>
</svg>
