<svg width="100" height="100" viewBox="0 0 100 100" fill="none" xmlns="http://www.w3.org/2000/svg">
<path d="M69 3.125H31C28.4938 3.12789 26.0911 4.12478 24.3189 5.89695C22.5467 7.66913 21.5498 10.0719 21.5469 12.5781V34.5375H15.736C14.3256 34.5392 12.9735 35.1003 11.9763 36.0977C10.9792 37.0951 10.4185 38.4474 10.4172 39.8578V60.1406C10.4185 61.551 10.9792 62.9033 11.9763 63.9007C12.9735 64.8982 14.3256 65.4593 15.736 65.4609H21.5469V87.4219C21.5498 89.9281 22.5467 92.3309 24.3189 94.103C26.0911 95.8752 28.4938 96.8721 31 96.875H69C71.5063 96.8721 73.909 95.8752 75.6812 94.103C77.4534 92.3309 78.4503 89.9281 78.4532 87.4219V65.4625H84.2641C85.6745 65.4608 87.0266 64.8997 88.0238 63.9023C89.0209 62.9049 89.5816 61.5526 89.5829 60.1422V39.8594C89.5816 38.449 89.0209 37.0967 88.0238 36.0993C87.0266 35.1018 85.6745 34.5407 84.2641 34.5391H78.4532V12.5781C78.4503 10.0719 77.4534 7.66913 75.6812 5.89695C73.909 4.12478 71.5063 3.12789 69 3.125ZM24.6719 12.5781C24.6736 10.9003 25.3408 9.29169 26.5272 8.10529C27.7136 6.9189 29.3222 6.25165 31 6.25H69C70.6779 6.25165 72.2865 6.9189 73.4729 8.10529C74.6593 9.29169 75.3265 10.9003 75.3282 12.5781V34.5375H24.6719V12.5781ZM75.3282 87.4219C75.3265 89.0997 74.6593 90.7083 73.4729 91.8947C72.2865 93.0811 70.6779 93.7483 69 93.75H31C29.3222 93.7483 27.7136 93.0811 26.5272 91.8947C25.3408 90.7083 24.6736 89.0997 24.6719 87.4219V65.4625H75.3282V87.4219ZM86.4579 39.8578V60.1406C86.4579 61.3516 85.4735 62.3359 84.2641 62.3359H15.7344C14.525 62.3359 13.5407 61.3516 13.5407 60.1406V39.8594C13.5407 38.6484 14.525 37.6641 15.7344 37.6641H84.2657C85.4751 37.6641 86.4594 38.6484 86.4594 39.8594L86.4579 39.8578Z" fill="#737A86"/>
<path d="M43.4016 89.3516H56.5985C57.0129 89.3516 57.4103 89.187 57.7033 88.8939C57.9964 88.6009 58.161 88.2035 58.161 87.7891C58.161 87.3747 57.9964 86.9772 57.7033 86.6842C57.4103 86.3912 57.0129 86.2266 56.5985 86.2266H43.4016C42.9872 86.2266 42.5898 86.3912 42.2967 86.6842C42.0037 86.9772 41.8391 87.3747 41.8391 87.7891C41.8391 88.2035 42.0037 88.6009 42.2967 88.8939C42.5898 89.187 42.9872 89.3516 43.4016 89.3516ZM54.3407 10.6484H43.4032C42.9888 10.6484 42.5913 10.8131 42.2983 11.1061C42.0053 11.3991 41.8407 11.7965 41.8407 12.2109C41.8407 12.6253 42.0053 13.0228 42.2983 13.3158C42.5913 13.6088 42.9888 13.7734 43.4032 13.7734H54.3407C54.7551 13.7734 55.1525 13.6088 55.4455 13.3158C55.7385 13.0228 55.9032 12.6253 55.9032 12.2109C55.9032 11.7965 55.7385 11.3991 55.4455 11.1061C55.1525 10.8131 54.7551 10.6484 54.3407 10.6484ZM19.8938 53.3672C19.9983 53.5438 20.1366 53.698 20.3008 53.8211C20.465 53.9442 20.6519 54.0337 20.8507 54.0845C21.0495 54.1353 21.2564 54.1464 21.4595 54.1171C21.6626 54.0879 21.858 54.0189 22.0344 53.9141L24.0125 52.7422V55.0422C24.0125 55.4566 24.1772 55.854 24.4702 56.147C24.7632 56.4401 25.1606 56.6047 25.575 56.6047C25.9894 56.6047 26.3869 56.4401 26.6799 56.147C26.9729 55.854 27.1375 55.4566 27.1375 55.0422V52.7422L29.1172 53.9141C29.2935 54.0193 29.4889 54.0886 29.6921 54.1181C29.8953 54.1476 30.1023 54.1366 30.3013 54.0858C30.5002 54.0349 30.6871 53.9453 30.8513 53.822C31.0155 53.6987 31.1536 53.5441 31.2578 53.3672C31.4691 53.0108 31.5302 52.5851 31.4277 52.1836C31.3251 51.7822 31.0673 51.438 30.711 51.2266L28.6407 50L30.7094 48.7734C30.8897 48.6707 31.0477 48.5331 31.1742 48.3687C31.3007 48.2043 31.3932 48.0163 31.4463 47.8157C31.4994 47.6152 31.512 47.4061 31.4834 47.2006C31.4548 46.9951 31.3856 46.7973 31.2798 46.6189C31.1739 46.4404 31.0336 46.2849 30.867 46.1612C30.7004 46.0376 30.5109 45.9483 30.3094 45.8987C30.108 45.8491 29.8987 45.8401 29.6937 45.8723C29.4888 45.9044 29.2923 45.977 29.1157 46.0859L27.1375 47.2578V44.9578C27.1375 44.5434 26.9729 44.146 26.6799 43.853C26.3869 43.5599 25.9894 43.3953 25.575 43.3953C25.1606 43.3953 24.7632 43.5599 24.4702 43.853C24.1772 44.146 24.0125 44.5434 24.0125 44.9578V47.2578L22.036 46.0859C21.8594 45.977 21.6629 45.9044 21.4579 45.8723C21.2529 45.8401 21.0436 45.8491 20.8422 45.8987C20.6407 45.9483 20.4512 46.0376 20.2846 46.1612C20.118 46.2849 19.9777 46.4404 19.8719 46.6189C19.766 46.7973 19.6968 46.9951 19.6682 47.2006C19.6396 47.4061 19.6523 47.6152 19.7053 47.8157C19.7584 48.0163 19.8509 48.2043 19.9775 48.3687C20.104 48.5331 20.262 48.6707 20.4422 48.7734L22.511 50L20.4422 51.2266C20.0859 51.438 19.8281 51.7822 19.7255 52.1836C19.623 52.5851 19.6825 53.0108 19.8938 53.3672ZM36.1766 53.3672C36.2811 53.5438 36.4194 53.698 36.5836 53.8211C36.7478 53.9442 36.9347 54.0337 37.1335 54.0845C37.3323 54.1353 37.5392 54.1464 37.7423 54.1171C37.9455 54.0879 38.1408 54.0189 38.3172 53.9141L40.2953 52.7422V55.0422C40.2953 55.4566 40.46 55.854 40.753 56.147C41.046 56.4401 41.4434 56.6047 41.8578 56.6047C42.2722 56.6047 42.6697 56.4401 42.9627 56.147C43.2557 55.854 43.4203 55.4566 43.4203 55.0422V52.7422L45.4 53.9141C45.5763 54.0193 45.7717 54.0886 45.9749 54.1181C46.1781 54.1476 46.3851 54.1366 46.5841 54.0858C46.783 54.0349 46.9699 53.9453 47.1341 53.822C47.2983 53.6987 47.4364 53.5441 47.5407 53.3672C47.7519 53.0108 47.813 52.5851 47.7105 52.1836C47.6079 51.7822 47.3501 51.438 46.9938 51.2266L44.9219 50L46.9907 48.7734C47.1709 48.6707 47.3289 48.5331 47.4554 48.3687C47.5819 48.2043 47.6744 48.0163 47.7275 47.8157C47.7806 47.6152 47.7932 47.4061 47.7647 47.2006C47.7361 46.9951 47.6668 46.7973 47.561 46.6189C47.4552 46.4404 47.3149 46.2849 47.1483 46.1612C46.9817 46.0376 46.7921 45.9483 46.5907 45.8987C46.3892 45.8491 46.1799 45.8401 45.975 45.8723C45.77 45.9044 45.5735 45.977 45.3969 46.0859L43.4188 47.2578V44.9578C43.4188 44.5434 43.2542 44.146 42.9611 43.853C42.6681 43.5599 42.2707 43.3953 41.8563 43.3953C41.4419 43.3953 41.0445 43.5599 40.7514 43.853C40.4584 44.146 40.2938 44.5434 40.2938 44.9578V47.2578L38.3157 46.0859C38.1391 45.977 37.9426 45.9044 37.7376 45.8723C37.5326 45.8401 37.3233 45.8491 37.1219 45.8987C36.9204 45.9483 36.7309 46.0376 36.5643 46.1612C36.3977 46.2849 36.2574 46.4404 36.1516 46.6189C36.0457 46.7973 35.9765 46.9951 35.9479 47.2006C35.9193 47.4061 35.9319 47.6152 35.985 47.8157C36.0381 48.0163 36.1306 48.2043 36.2571 48.3687C36.3837 48.5331 36.5417 48.6707 36.7219 48.7734L38.7922 50L36.7235 51.2266C36.3671 51.438 36.1093 51.7822 36.0068 52.1836C35.9042 52.5851 35.9653 53.0108 36.1766 53.3672ZM52.4594 53.3672C52.5639 53.5438 52.7022 53.698 52.8664 53.8211C53.0306 53.9442 53.2175 54.0337 53.4163 54.0845C53.6151 54.1353 53.822 54.1464 54.0252 54.1171C54.2283 54.0879 54.4236 54.0189 54.6 53.9141L56.5797 52.7422V55.0422C56.5797 55.4566 56.7443 55.854 57.0374 56.147C57.3304 56.4401 57.7278 56.6047 58.1422 56.6047C58.5566 56.6047 58.9541 56.4401 59.2471 56.147C59.5401 55.854 59.7047 55.4566 59.7047 55.0422V52.7422L61.6828 53.9141C61.8592 54.0193 62.0545 54.0886 62.2577 54.1181C62.4609 54.1476 62.6679 54.1366 62.8669 54.0858C63.0658 54.0349 63.2527 53.9453 63.4169 53.822C63.5811 53.6987 63.7192 53.5441 63.8235 53.3672C64.0348 53.0108 64.0958 52.5851 63.9933 52.1836C63.8907 51.7822 63.6329 51.438 63.2766 51.2266L61.2047 50L63.2735 48.7734C63.4537 48.6707 63.6117 48.5331 63.7382 48.3687C63.8648 48.2043 63.9573 48.0163 64.0103 47.8157C64.0634 47.6152 64.0761 47.4061 64.0475 47.2006C64.0189 46.9951 63.9497 46.7973 63.8438 46.6189C63.738 46.4404 63.5977 46.2849 63.4311 46.1612C63.2645 46.0376 63.075 45.9483 62.8735 45.8987C62.6721 45.8491 62.4627 45.8401 62.2578 45.8723C62.0528 45.9044 61.8563 45.977 61.6797 46.0859L59.7032 47.2578V44.9578C59.7032 44.5434 59.5385 44.146 59.2455 43.853C58.9525 43.5599 58.5551 43.3953 58.1407 43.3953C57.7263 43.3953 57.3288 43.5599 57.0358 43.853C56.7428 44.146 56.5782 44.5434 56.5782 44.9578V47.2578L54.5985 46.0859C54.4219 45.977 54.2254 45.9044 54.0204 45.8723C53.8154 45.8401 53.6061 45.8491 53.4047 45.8987C53.2032 45.9483 53.0137 46.0376 52.8471 46.1612C52.6805 46.2849 52.5402 46.4404 52.4344 46.6189C52.3285 46.7973 52.2593 46.9951 52.2307 47.2006C52.2021 47.4061 52.2148 47.6152 52.2678 47.8157C52.3209 48.0163 52.4134 48.2043 52.54 48.3687C52.6665 48.5331 52.8245 48.6707 53.0047 48.7734L55.0782 50L53.0094 51.2266C52.6531 51.438 52.3953 51.7822 52.2927 52.1836C52.1902 52.5851 52.2513 53.0108 52.4625 53.3672H52.4594ZM68.7422 53.3672C68.8467 53.5438 68.9851 53.698 69.1493 53.8211C69.3135 53.9442 69.5003 54.0337 69.6991 54.0845C69.898 54.1353 70.1049 54.1464 70.308 54.1171C70.5111 54.0879 70.7064 54.0189 70.8829 53.9141L72.8625 52.7422V55.0422C72.8625 55.4566 73.0272 55.854 73.3202 56.147C73.6132 56.4401 74.0106 56.6047 74.425 56.6047C74.8394 56.6047 75.2369 56.4401 75.5299 56.147C75.8229 55.854 75.9875 55.4566 75.9875 55.0422V52.7422L77.9641 53.9141C78.1404 54.0193 78.3358 54.0886 78.539 54.1181C78.7422 54.1476 78.9492 54.1366 79.1481 54.0858C79.3471 54.0349 79.534 53.9453 79.6982 53.822C79.8623 53.6987 80.0005 53.5441 80.1047 53.3672C80.316 53.0108 80.3771 52.5851 80.2745 52.1836C80.172 51.7822 79.9142 51.438 79.5578 51.2266L77.4891 50L79.5578 48.7734C79.7381 48.6707 79.8961 48.5331 80.0226 48.3687C80.1491 48.2043 80.2416 48.0163 80.2947 47.8157C80.3478 47.6152 80.3604 47.4061 80.3318 47.2006C80.3033 46.9951 80.234 46.7973 80.1282 46.6189C80.0224 46.4404 79.8821 46.2849 79.7155 46.1612C79.5489 46.0376 79.3593 45.9483 79.1579 45.8987C78.9564 45.8491 78.7471 45.8401 78.5422 45.8723C78.3372 45.9044 78.1407 45.977 77.9641 46.0859L75.9875 47.2578V44.9578C75.9875 44.5434 75.8229 44.146 75.5299 43.853C75.2369 43.5599 74.8394 43.3953 74.425 43.3953C74.0106 43.3953 73.6132 43.5599 73.3202 43.853C73.0272 44.146 72.8625 44.5434 72.8625 44.9578V47.2578L70.8829 46.0859C70.7063 45.977 70.5098 45.9044 70.3048 45.8723C70.0998 45.8401 69.8905 45.8491 69.6891 45.8987C69.4876 45.9483 69.2981 46.0376 69.1315 46.1612C68.9649 46.2849 68.8246 46.4404 68.7187 46.6189C68.6129 46.7973 68.5437 46.9951 68.5151 47.2006C68.4865 47.4061 68.4991 47.6152 68.5522 47.8157C68.6053 48.0163 68.6978 48.2043 68.8243 48.3687C68.9508 48.5331 69.1088 48.6707 69.2891 48.7734L71.3594 50L69.2907 51.2266C68.9343 51.438 68.6765 51.7822 68.574 52.1836C68.4714 52.5851 68.5309 53.0108 68.7422 53.3672Z" fill="#737A86"/>
</svg>
