<svg width="14" height="14" viewBox="0 0 14 14" fill="none" xmlns="http://www.w3.org/2000/svg">
<path d="M1.91019 8.92312C1.4144 8.27901 1.1665 7.95695 1.1665 7.00065C1.1665 6.04435 1.4144 5.72229 1.91019 5.07818C2.90015 3.79206 4.5604 2.33398 6.99984 2.33398C9.43927 2.33398 11.0995 3.79206 12.0895 5.07818C12.5853 5.72229 12.8332 6.04435 12.8332 7.00065C12.8332 7.95695 12.5853 8.27901 12.0895 8.92312C11.0995 10.2092 9.43927 11.6673 6.99984 11.6673C4.5604 11.6673 2.90015 10.2092 1.91019 8.92312Z" stroke="#010002" stroke-width="1.5"/>
<path d="M8.75 7C8.75 7.9665 7.9665 8.75 7 8.75C6.0335 8.75 5.25 7.9665 5.25 7C5.25 6.0335 6.0335 5.25 7 5.25C7.9665 5.25 8.75 6.0335 8.75 7Z" stroke="#010002" stroke-width="1.5"/>
</svg>
