<svg width="28" height="25" viewBox="0 0 28 25" fill="none" xmlns="http://www.w3.org/2000/svg">
<g clip-path="url(#clip0_35135_38168)">
<path d="M8.41609 18.4029C7.78413 18.4029 7.29852 18.3858 6.83856 18.3478C4.06744 18.1197 1.95108 16.6866 0.719471 14.2054C-0.219443 12.3161 -0.24035 10.1028 0.660551 8.13474C1.57476 6.13813 3.29483 4.68604 5.38078 4.15006C5.77991 4.04743 6.22656 3.97235 6.74543 3.91914C6.81671 3.91153 6.83666 3.90203 6.83761 3.90108C6.83761 3.90108 6.85092 3.88872 6.87373 3.84311C7.77938 2.04891 9.20295 0.847709 11.1036 0.273718C11.7032 0.092207 12.3238 0.000976562 12.9482 0.000976562C15.7573 0.000976562 18.2443 1.79232 19.1366 4.45892C19.1604 4.52924 19.1765 4.55205 19.1794 4.55585C19.1813 4.55585 19.206 4.56535 19.2678 4.572C20.5821 4.7041 21.636 5.37977 22.3991 6.58002C22.5815 6.86702 22.7383 6.97155 23.069 7.02952C24.4793 7.27566 25.7309 8.02165 26.5928 9.12877C27.4538 10.2359 27.8691 11.631 27.7617 13.0574C27.6667 14.3213 27.0841 15.4769 26.0302 16.4909C24.7292 17.7434 23.147 18.383 21.3262 18.3934C20.8367 18.3963 20.3473 18.3972 19.857 18.3972C19.4768 18.3972 19.0958 18.3972 18.7156 18.3963C18.3574 18.3963 17.5572 18.3963 17.5572 18.3963C17.4983 18.3963 17.4289 18.3953 17.3548 18.3849C16.8511 18.3174 16.5023 17.9145 16.5261 17.426C16.5499 16.9356 16.9243 16.5688 17.4184 16.5546C17.6874 16.547 17.9554 16.546 18.1825 16.546H18.6643C18.766 16.546 18.8686 16.546 18.9703 16.546C19.034 16.546 19.0986 16.546 19.1632 16.546C19.398 16.546 19.6327 16.5489 19.8674 16.5517C20.0993 16.5546 20.3312 16.5574 20.5621 16.5574C21.0867 16.5574 21.4868 16.5422 21.8574 16.507C23.3247 16.3683 24.4974 15.6774 25.3431 14.4525C26.1813 13.2379 26.1338 11.65 25.2215 10.407C24.4517 9.3578 23.4492 8.82847 22.1586 8.78856C21.7424 8.77526 21.4345 8.58709 21.215 8.21362L21.1665 8.13094C20.9774 7.80593 20.7978 7.49898 20.5792 7.23099C20.1211 6.6684 19.5358 6.39566 18.7917 6.39566C18.7726 6.39566 18.7536 6.39566 18.7346 6.39566C18.6976 6.39566 18.6624 6.39661 18.6292 6.39661C17.8651 6.39661 17.6655 6.10772 17.5049 5.46055C16.9813 3.34229 15.1016 1.8636 12.9329 1.8636C11.8068 1.8636 10.7415 2.25703 9.85107 3.00303C9.45289 3.33564 9.12788 3.69581 8.86654 4.09494C11.8049 5.0215 13.5288 6.96775 13.9935 9.88523C14.022 10.0658 13.9184 10.2416 13.7464 10.3034C13.7046 10.3186 13.6609 10.3252 13.6181 10.3252C13.486 10.3252 13.3596 10.2558 13.2903 10.1371L13.2542 10.0762C13.2256 10.0278 13.1971 9.97931 13.1696 9.93084C12.4217 8.59089 11.6529 7.64913 10.7501 6.9668C9.69332 6.16759 8.48927 5.74564 7.27001 5.74564C5.68773 5.74564 4.18338 6.44508 3.14088 7.66338C2.03851 8.95297 1.62322 10.6493 2.00145 12.318C2.37967 13.9877 3.48679 15.341 5.03961 16.0309C5.80842 16.3721 6.63044 16.546 7.48383 16.546H7.51329C7.86586 16.5441 8.21937 16.5441 8.57194 16.5441C9.02619 16.5441 9.48045 16.5441 9.9347 16.546H10.1523C10.2787 16.546 10.4137 16.5498 10.5543 16.5764C10.942 16.6515 11.2309 16.9708 11.2737 17.3709C11.3174 17.7824 11.0846 18.171 10.7054 18.3174C10.5714 18.3687 10.4412 18.3953 10.3167 18.3953H10.1447C9.85867 18.3953 9.57263 18.3982 9.28563 18.402C8.99578 18.4058 8.70689 18.4086 8.41704 18.4086L8.41609 18.4029Z" fill="#03BC00"/>
<path d="M8.29054 4.31935C11.2413 5.10716 13.1267 6.86715 13.6161 9.94047C13.5772 9.87395 13.5372 9.80838 13.5002 9.74091C12.8426 8.56346 12.0633 7.47915 10.978 6.65903C8.13469 4.51036 4.7278 5.2155 2.85092 7.41263C0.373445 10.312 1.39409 14.8232 4.88365 16.3741C5.72278 16.7466 6.59707 16.9253 7.51318 16.9215C8.39222 16.9177 9.27127 16.9196 10.1503 16.9215C10.2605 16.9215 10.3736 16.9234 10.481 16.9443C10.71 16.989 10.8697 17.1752 10.8944 17.4062C10.9191 17.6399 10.7861 17.8728 10.5675 17.9574C10.4877 17.9878 10.3983 18.0106 10.3138 18.0096C9.16578 18.0039 8.0121 18.0638 6.87171 17.9697C4.21463 17.7502 2.24367 16.4178 1.06147 14.0373C-0.817302 10.2541 1.37318 5.57282 5.47665 4.51986C5.90429 4.41058 6.34524 4.34406 6.78524 4.29939C7.00191 4.27753 7.115 4.21291 7.21478 4.0162C8.06816 2.32653 9.40716 1.1852 11.2156 0.638768C14.3583 -0.311549 17.7319 1.45699 18.7782 4.57973C18.86 4.82492 18.9683 4.9228 19.2315 4.94941C20.4879 5.0758 21.4201 5.74577 22.0806 6.78257C22.3153 7.15034 22.5605 7.32425 23.0062 7.40218C25.7317 7.87829 27.5915 10.2731 27.3843 13.0281C27.2893 14.2996 26.6744 15.343 25.7678 16.2164C24.5305 17.4071 23.0433 18.003 21.3251 18.0125C20.0982 18.0191 18.8704 18.0144 17.6436 18.0144C17.5647 18.0144 17.4849 18.0172 17.406 18.0068C17.0981 17.9659 16.8928 17.7312 16.9071 17.4432C16.9204 17.1572 17.1228 16.9424 17.4307 16.9339C17.9448 16.9187 18.4599 16.9291 18.975 16.9244C19.949 16.9168 20.9288 16.9738 21.8943 16.8835C23.4747 16.7343 24.7538 15.975 25.6566 14.6664C26.5984 13.3027 26.5319 11.5456 25.5283 10.18C24.6987 9.05003 23.5773 8.45038 22.1709 8.40666C21.8763 8.39716 21.69 8.26887 21.5437 8.01893C21.3365 7.66541 21.1322 7.30334 20.8746 6.98784C20.3273 6.31596 19.5993 5.99666 18.7279 6.01281C18.1206 6.02422 18.017 5.94439 17.8745 5.3666C16.9593 1.66511 12.5489 0.247237 9.60768 2.70761C9.07455 3.15331 8.6298 3.67123 8.29244 4.31935H8.29054Z" fill="#03BC00"/>
<path d="M13.8975 20.6703C13.429 20.6703 13.0327 20.3167 12.9766 19.8492C12.9652 19.7532 12.9662 19.6629 12.9671 19.584V19.5204V13.7615C12.9082 13.8204 12.8483 13.8793 12.7894 13.9382C12.5765 14.1501 12.3627 14.3621 12.1489 14.573C11.9341 14.7849 11.6718 14.9018 11.4105 14.9018C11.171 14.9018 10.9439 14.803 10.77 14.6243C10.4041 14.2471 10.4317 13.6778 10.8346 13.2711C11.6367 12.4614 12.4387 11.6527 13.2427 10.8468C13.4214 10.6682 13.6532 10.5693 13.8946 10.5693C14.155 10.5693 14.4144 10.6834 14.6235 10.8896C14.9723 11.2327 15.3229 11.5843 15.6632 11.9235L16.0547 12.3151C16.1421 12.4025 16.2295 12.489 16.317 12.5755C16.5365 12.7921 16.7636 13.0164 16.9812 13.2464C17.2996 13.5799 17.3452 14.038 17.0991 14.4134C16.9309 14.67 16.6382 14.8287 16.3369 14.8287C16.2267 14.8287 16.1193 14.8087 16.0167 14.7678C15.877 14.7127 15.7382 14.6177 15.6033 14.4865C15.34 14.23 15.0759 13.9658 14.8202 13.7111C14.8202 15.0586 14.8202 16.4071 14.8202 17.7547V19.5631C14.8202 19.6411 14.8212 19.7294 14.8136 19.8207C14.7718 20.3063 14.3926 20.6646 13.9117 20.6722C13.9098 20.6722 13.8994 20.6722 13.8975 20.6722V20.6703Z" fill="#03BC00"/>
<path d="M14.4609 12.8374C14.4514 12.997 14.441 13.0959 14.441 13.1938C14.44 15.2968 14.441 17.3989 14.44 19.502C14.44 19.597 14.4429 19.692 14.4353 19.7861C14.4096 20.0826 14.1939 20.285 13.906 20.2898C13.6266 20.2945 13.388 20.0874 13.3548 19.8032C13.3434 19.7091 13.3491 19.6141 13.3491 19.5191C13.3491 17.4246 13.3491 15.3301 13.3491 13.2346C13.3491 13.1415 13.3491 13.0484 13.3491 12.8868C13.236 12.9799 13.1704 13.0255 13.1134 13.0816C12.7029 13.4874 12.2942 13.896 11.8837 14.3018C11.609 14.5727 11.2726 14.5936 11.0445 14.3598C10.825 14.1336 10.8478 13.8001 11.1063 13.5387C11.9074 12.73 12.7095 11.9213 13.5135 11.1154C13.7491 10.8788 14.0903 10.8959 14.3593 11.1601C14.8392 11.6314 15.3124 12.1085 15.7885 12.5836C16.0964 12.8906 16.4091 13.1928 16.7084 13.5074C16.909 13.7183 16.928 13.9844 16.7835 14.2039C16.6495 14.4073 16.3891 14.5052 16.1582 14.414C16.0518 14.3721 15.9529 14.2942 15.8703 14.2134C15.474 13.8267 15.0843 13.4332 14.6919 13.0436C14.6329 12.9856 14.5683 12.9334 14.4609 12.8374Z" fill="#03BC00"/>
<path d="M13.8793 22.9892C13.6056 22.9844 13.349 22.8732 13.158 22.6756C12.967 22.4779 12.8634 22.2175 12.8691 21.9438C12.8786 21.3879 13.3395 20.9355 13.8964 20.9355H13.9164C14.4828 20.947 14.9361 21.4155 14.9266 21.9809C14.9171 22.5378 14.4552 22.9901 13.8974 22.9901H13.8793V22.9892Z" fill="#03BC00"/>
<path d="M13.886 22.6089C13.5297 22.6032 13.2427 22.3058 13.2484 21.9494C13.255 21.593 13.5515 21.307 13.9079 21.3146C14.2671 21.3213 14.5513 21.6149 14.5456 21.9732C14.5399 22.3305 14.2434 22.6156 13.8851 22.6089H13.886Z" fill="#03BC00"/>
<path d="M13.9109 25C13.4005 25 12.9947 24.6047 12.9862 24.1001C12.9824 23.8578 13.0746 23.6259 13.2475 23.4472C13.4214 23.2676 13.6514 23.1669 13.8957 23.1631C13.8976 23.1631 13.908 23.1631 13.9099 23.1631C14.4183 23.1631 14.8222 23.5603 14.8298 24.0678C14.8336 24.3168 14.7424 24.5506 14.5742 24.7245C14.406 24.8984 14.175 24.9962 13.9261 25C13.9242 25 13.9128 25 13.9109 25Z" fill="#03BC00"/>
<path d="M13.9203 24.6197C13.6172 24.6245 13.371 24.3907 13.3663 24.0933C13.3615 23.8006 13.6077 23.5478 13.9013 23.543C14.2026 23.5383 14.4458 23.773 14.4506 24.0733C14.4553 24.3793 14.2263 24.614 13.9203 24.6188V24.6197Z" fill="#03BC00"/>
</g>
<defs>
<clipPath id="clip0_35135_38168">
<rect width="27.7787" height="25" fill="white"/>
</clipPath>
</defs>
</svg>
